# xmcd CD database file
#
# Track frame offsets:
#	150
#	13348
#	24657
#	36899
#	46972
#	60408
#	72968
#	83459
#	97784
#	112508
#
# Disc length: 1654 seconds
#
# Revision: 0
# Processed by: cddbd v1.5.2PL0 Copyright (c) Steve Scherf et al.
# Submitted via: CDex 1.81
#
DISCID=6b06740a
DTITLE=Hohn C. Davis - Haifischcowboy
DYEAR=2004
DGENRE=Country
TTITLE0=Haifischcowboy
TTITLE1=On the road again
TTITLE2=Jamalaya
TTITLE3=Some broken hearts
TTITLE4=El Paso
TTITLE5=Folsome Prison Blues
TTITLE6=Guitar playing Joe
TTITLE7=Detroit City
TTITLE8=Homesick-Heimweh
TTITLE9=Lili Marleen
EXTD=YEAR: 2004
EXTT0=
EXTT1=
EXTT2=
EXTT3=
EXTT4=
EXTT5=
EXTT6=
EXTT7=
EXTT8=
EXTT9=
PLAYORDER=
